<?xml version="1.0" encoding="UTF-8"?>
<!-- Uploaded to: SVG Repo, www.svgrepo.com, Generator: SVG Repo Mixer Tools -->
<svg width="800px" height="800px" viewBox="-8.5 0 51 51" version="1.1" xmlns="http://www.w3.org/2000/svg" xmlns:xlink="http://www.w3.org/1999/xlink">
    
    <title>009-Baby</title>
    <desc>Created with Sketch.</desc>
    <defs>

</defs>
    <g id="Page-1" stroke="none" stroke-width="1" fill="none" fill-rule="evenodd">
        <g id="Artboard" transform="translate(-315.000000, -727.000000)">
            <g id="009-Baby" transform="translate(315.000000, 727.000000)">
                <path d="M15.8199,36.7518 C16.2309,36.8278 16.5529,39.0578 16.0169,39.5618 C15.7169,39.8448 6.7849,42.9278 6.4129,42.6378 C6.0399,42.3468 5.6629,41.0368 6.1739,40.5528 C6.4479,40.2928 15.4089,36.6758 15.8199,36.7518" id="Fill-1264" fill="#F3B679">

</path>
                <path d="M15.7385,34.5207 C15.7385,34.5207 14.0745,37.8377 15.6175,40.2397 C17.1605,42.6407 25.3465,43.7397 26.8055,37.9107 C26.8055,37.9107 21.2935,34.0517 15.7385,34.5207" id="Fill-1266" fill="#FEFDFC">

</path>
                <path d="M6.1558,33.4171 C5.9548,32.9491 7.4188,31.9311 8.6438,32.0391 C9.3058,32.0981 10.9278,32.9431 10.9278,32.9431 C10.9278,32.9431 14.9338,27.8531 15.3528,27.7201 C15.7708,27.5881 17.0198,29.1271 17.0198,29.1271 C17.0198,29.1271 11.8668,35.1861 11.0268,35.4581 C9.5698,35.9311 8.1018,35.6801 7.9008,35.4121 C7.6998,35.1451 8.3688,34.5211 8.3688,34.5211 C8.3688,34.5211 6.3568,33.8851 6.1558,33.4171" id="Fill-1268" fill="#F3B679">

</path>
                <path d="M19.5783,22.1431 L17.0193,29.1271 C15.2803,28.2791 15.1443,27.3951 15.2583,26.9641 C15.9043,24.5121 19.5783,22.1431 19.5783,22.1431" id="Fill-1270" fill="#EEA8B7">

</path>
                <path d="M15.3524,27.7205 C15.6824,27.6165 16.5254,28.5475 16.8694,28.9475 L16.6354,29.5855 C16.6044,29.6225 16.5734,29.6595 16.5384,29.7005 C15.4574,29.1645 15.0124,28.6165 14.8614,28.1785 C15.1024,27.9175 15.2834,27.7425 15.3524,27.7205" id="Fill-1272" fill="#D58F66">

</path>
                <path d="M17.0196,29.1266 C15.2806,28.2796 15.1446,27.3956 15.2586,26.9636 C15.3156,26.7466 15.3976,26.5296 15.4986,26.3146 C16.0026,27.2186 16.7586,27.8416 17.3506,28.2236 L17.0196,29.1266 Z" id="Fill-1274" fill="#D47087">

</path>
                <path d="M19.7045,40.1982 C19.9545,39.9982 20.7205,39.9462 21.2665,40.1152 C21.8605,40.2982 22.3355,40.9282 22.1925,41.2842 C22.0385,41.6662 16.2985,49.2632 15.6175,49.2622 C15.1455,49.2612 13.9625,48.3392 13.9545,47.6352 C13.9485,47.0662 19.3785,40.4592 19.7045,40.1982" id="Fill-1276" fill="#F3B679">

</path>
                <path d="M19.0143,45.5273 C18.7583,44.7783 18.1053,43.7093 17.3953,42.9413 C15.7923,44.9233 13.9513,47.3043 13.9543,47.6353 C13.9623,48.3393 15.1453,49.2613 15.6183,49.2623 C15.9513,49.2623 17.5023,47.4343 19.0143,45.5273" id="Fill-1278" fill="#D58F66">

</path>
                <path d="M15.7385,34.5207 C15.7385,34.5207 15.5395,34.9037 15.3725,35.5087 C17.7445,38.3997 23.9935,39.2407 26.4015,39.0427 C26.5275,38.8017 26.6845,38.3777 26.8055,37.9107 C26.8055,37.9107 21.2935,34.0517 15.7385,34.5207" id="Fill-1280" fill="#C3C8C7">

</path>
                <path d="M22.3396,20.7215 C27.1416,20.9665 27.9886,37.1305 27.0526,37.7995 C26.1156,38.4685 18.3586,38.2215 15.7386,34.5205 C15.0216,33.5075 17.5376,20.4765 22.3396,20.7215" id="Fill-1282" fill="#FEFDFC">

</path>
                <path d="M24.1835,23.0083 C24.1835,23.0083 22.7465,24.6813 21.1685,24.3843 C19.5785,24.0853 19.8975,22.2523 19.8975,22.2523 L24.1835,23.0083 Z" id="Fill-1284" fill="#D47087">

</path>
                <path d="M23.8961,22.3596 C23.8961,22.3596 22.6711,24.3526 21.1681,23.7866 C19.9731,23.3356 20.3881,21.5946 20.3881,21.5946 L23.8961,22.3596 Z" id="Fill-1286" fill="#EFA26E">

</path>
                <path d="M13.9181,17.2701 C15.7851,22.4111 24.3031,23.8381 26.5061,22.6161 C30.1001,20.6241 31.3681,14.6311 31.3681,14.6311 L15.5171,5.9461 C15.5171,5.9461 12.7511,14.0581 13.9181,17.2701" id="Fill-1288" fill="#F3B679">

</path>
                <path d="M16.2658,15.3034 C16.2658,14.7424 15.9388,14.2874 15.5358,14.2874 C15.1338,14.2874 14.8068,14.7424 14.8068,15.3034 C14.8068,15.8644 15.1338,16.3194 15.5358,16.3194 C15.9388,16.3194 16.2658,15.8644 16.2658,15.3034" id="Fill-1290" fill="#050000">

</path>
                <path d="M23.4596,18.7276 C23.4596,18.1666 23.1326,17.7116 22.7296,17.7116 C22.3276,17.7116 22.0006,18.1666 22.0006,18.7276 C22.0006,19.2886 22.3276,19.7436 22.7296,19.7436 C23.1326,19.7436 23.4596,19.2886 23.4596,18.7276" id="Fill-1292" fill="#050000">

</path>
                <path d="M24.4114,20.5468 C24.4114,19.8158 24.9054,19.2228 25.5154,19.2228 C26.1244,19.2228 26.6184,19.8158 26.6184,20.5468 C26.6184,21.2778 26.1244,21.8708 25.5154,21.8708 C24.9054,21.8708 24.4114,21.2778 24.4114,20.5468" id="Fill-1294" fill="#EB8E71">

</path>
                <path d="M25.3567,31.994 C25.5587,31.668 27.2637,31.188 27.6267,31.45 C27.9887,31.713 30.3077,41.634 30.3077,41.634 C30.3077,41.634 32.2907,41.868 33.0717,42.938 C33.8517,44.008 32.5537,44.953 31.4837,45.132 C30.4137,45.31 28.7687,43.987 28.7687,43.987 C28.7687,43.987 28.1307,44.278 27.4817,44.291 C26.8327,44.305 26.2557,43.934 26.3227,43.578 C26.3897,43.221 28.1227,42.214 28.1227,42.214 C28.1227,42.214 25.1547,32.32 25.3567,31.994" id="Fill-1296" fill="#F3B679">

</path>
                <path d="M25.4359,23.8621 C26.3169,24.2661 29.3589,30.1301 28.6579,30.9771 C28.3259,31.3771 25.0899,32.2261 24.5329,32.0031 C23.9759,31.7801 23.2299,26.2411 23.6289,24.9451 C24.0289,23.6491 25.4359,23.8621 25.4359,23.8621" id="Fill-1298" fill="#EEA8B7">

</path>
                <path d="M25.3567,31.994 C25.5587,31.668 27.2637,31.188 27.6267,31.45 C27.6777,31.488 27.7707,31.728 27.8907,32.103 C27.2017,32.351 26.2047,32.608 25.4597,32.722 C25.3687,32.309 25.3267,32.043 25.3567,31.994" id="Fill-1300" fill="#D58F66">

</path>
                <path d="M28.6793,29.9644 C28.7883,30.4444 28.7963,30.8094 28.6573,30.9774 C28.3253,31.3774 25.0903,32.2254 24.5333,32.0024 C24.4183,31.9574 24.2993,31.6234 24.1833,31.1224 C25.2023,31.0734 27.8613,30.3714 28.6793,29.9644" id="Fill-1302" fill="#D47087">

</path>
                <path d="M14.5768,9.1753 C14.8478,10.5933 15.5948,11.6263 16.6728,11.6983 C17.4078,11.7473 18.4858,10.8233 18.4858,10.8233 C21.5628,19.9193 30.6068,16.8793 31.3688,14.6303 L15.5168,5.9453 C15.5168,5.9453 15.0478,7.3313 14.5768,9.1753" id="Fill-1304" fill="#D58F66">

</path>
                <path d="M15.517,5.9456 C16.695,1.1426 24.334,-0.8594 28.08,2.2176 C31.059,4.6636 33.564,8.1496 31.368,14.6306 C30.607,16.8796 21.921,18.5646 18.845,9.4686 C18.845,9.4686 17.622,10.5706 17.02,10.6986 C15.555,11.0086 14.861,8.6196 15.517,5.9456" id="Fill-1306" fill="#F3B679">

</path>
                <path d="M30.7865,16.6935 C30.7865,16.6935 32.3605,16.6185 32.6575,17.7295 C32.8805,18.5665 32.5735,19.9625 31.7265,20.3445 C30.8795,20.7275 29.2685,19.8025 29.2685,19.8025 L30.7865,16.6935 Z" id="Fill-1308" fill="#F3B679">

</path>
                <path d="M28.0805,2.2173 C26.3625,0.8063 23.8295,0.4743 21.4735,0.9793 C23.3935,1.8033 29.6655,4.9373 32.0905,11.5913 C32.6915,7.0043 30.5535,4.2483 28.0805,2.2173" id="Fill-1310" fill="#EFA26E">

</path>
                <path d="M14.766,42.3138 C13.604,42.9308 13.753,47.2928 13.753,47.2928 C13.753,47.2928 12.787,48.2608 12.787,49.2258 C12.787,50.1908 14.312,51.0818 15.168,50.8598 C16.024,50.6368 16.024,49.2258 16.024,49.2258 C16.024,49.2258 18.286,47.4408 18.286,46.3268 C18.286,45.2118 15.928,41.6968 14.766,42.3138" id="Fill-1312" fill="#F3B679">

</path>
                <path d="M6.1736,40.553 C6.1736,40.553 3.0906,35.118 2.3276,35.118 C1.5646,35.118 0.4336,37.645 0.7166,38.882 C0.9986,40.118 3.9776,42.302 3.9776,42.302 C3.9776,42.302 3.7316,43.834 4.5796,44.283 C5.4276,44.732 6.7896,42.657 6.7896,42.657 L6.1736,40.553 Z" id="Fill-1314" fill="#F3B679">

</path>
                <path d="M19.4373,29.3992 C19.4373,29.3992 20.3713,27.2632 20.8193,27.4802 C21.2663,27.6972 21.4623,29.9852 21.4623,29.9852 C21.4623,29.9852 23.3193,30.6822 23.4013,31.0952 C23.4823,31.5082 21.6653,31.9632 21.6653,31.9632 C21.6653,31.9632 22.1223,34.5392 21.6883,34.5392 C21.2543,34.5392 20.0033,32.3292 20.0033,32.3292 C20.0033,32.3292 18.2423,33.4682 18.0963,33.0792 C17.9503,32.6902 18.8183,31.0142 18.8183,31.0142 C18.8183,31.0142 17.1813,29.7532 17.5063,29.1702 C17.6473,28.9172 19.4373,29.3992 19.4373,29.3992" id="Fill-1316" fill="#EEA8B7">

</path>
            </g>
        </g>
    </g>
</svg>