<svg height="512" viewBox="0 0 512 512" width="512" xmlns="http://www.w3.org/2000/svg"><g id="solid"><path d="m240 136h32a8 8 0 0 0 0-16h-32a8 8 0 0 0 0 16z"/><path d="m245.4 184.455c3.507-.29 7.039-.455 10.6-.455s7.088.166 10.6.459a318.484 318.484 0 0 1 -2.5-32.459h-16.2a318.1 318.1 0 0 1 -2.5 32.455z"/><path d="m229.882 253.9a73.528 73.528 0 0 1 26.118 28.657 73.528 73.528 0 0 1 26.118-28.657 74.694 74.694 0 0 1 13.221-6.68 40.006 40.006 0 1 0 -78.665 0 74.724 74.724 0 0 1 13.208 6.68z"/><path d="m311.919 243a73.629 73.629 0 0 1 27.118 1.461 75.242 75.242 0 0 1 8.132 2.483 112.406 112.406 0 0 0 -43.451-36.21 55.654 55.654 0 0 1 8.282 29.266q0 1.5-.081 3z"/><path d="m472.667 280.39a56.084 56.084 0 0 0 -88.018-35.434l-17.805 12.858a73.614 73.614 0 0 1 18.46 21.115 83.222 83.222 0 0 1 7.941 18.438 32 32 0 0 1 -6.277 62.49c-.267.5-.524 1.017-.8 1.513l-12.568 22.63h54.492l27.987-35.985a85.39 85.39 0 0 0 16.588-67.625z"/><circle cx="384" cy="328" r="16"/><circle cx="256" cy="344" r="16"/><path d="m335.265 260.005a57.663 57.663 0 0 0 -71.181 53.031 32 32 0 0 1 -.084 61.951v9.013h91.293l15.04-27.073a31.994 31.994 0 0 1 5.9-59.97 67.385 67.385 0 0 0 -4.755-9.966 57.179 57.179 0 0 0 -36.213-26.986z"/><path d="m88 424h336v32h-336z"/><path d="m200.088 243c-.053-1-.088-2-.088-3a55.656 55.656 0 0 1 8.34-29.361 112.03 112.03 0 0 0 -43.5 36.3 75.233 75.233 0 0 1 8.128-2.481 73.645 73.645 0 0 1 27.12-1.458z"/><path d="m88 472h336v8h-336z"/><path d="m88 400h336v8h-336z"/><path d="m135.762 296.957a31.994 31.994 0 0 1 5.905 59.97l15.04 27.073h91.293v-9.013a32 32 0 0 1 -.084-61.951 57.369 57.369 0 0 0 -26.624-45.64 58.076 58.076 0 0 0 -13.74-6.407c-.094-.029-.188-.052-.28-.084a57.207 57.207 0 0 0 -30.537-.9 58.269 58.269 0 0 0 -12.184 4.447 7.976 7.976 0 0 1 -2.811 1.494 57.228 57.228 0 0 0 -21.223 21.045 67.28 67.28 0 0 0 -4.755 9.966z"/><circle cx="128" cy="328" r="16"/><path d="m125.832 361.37c-.277-.5-.54-1.007-.808-1.513a32 32 0 0 1 -6.269-62.49 83.248 83.248 0 0 1 7.945-18.437 73.717 73.717 0 0 1 16.974-19.948 8.036 8.036 0 0 1 -1.095-3.032l-15.223-10.994a56.085 56.085 0 0 0 -88.023 35.434 85.39 85.39 0 0 0 16.592 67.625l27.987 35.985h54.488z"/><path d="m240 64h8v18.165a16 16 0 0 0 -8 13.835 15.828 15.828 0 0 0 2.15 8h27.7a15.958 15.958 0 0 0 -5.85-21.835v-18.165h8a8 8 0 0 0 0-16h-8v-8a8 8 0 0 0 -16 0v8h-8a8 8 0 0 0 0 16z"/></g></svg>