<?xml version="1.0" encoding="iso-8859-1"?>
<!-- Uploaded to: SVG Repo, www.svgrepo.com, Generator: SVG Repo Mixer Tools -->
<svg version="1.1" id="Layer_1" xmlns="http://www.w3.org/2000/svg" xmlns:xlink="http://www.w3.org/1999/xlink" 
	 viewBox="0 0 512 512" xml:space="preserve">
<path style="fill:#48AEE2;" d="M355.067,114.296l-97.334,50.241c-1.089,0.556-2.375,0.556-3.464,0l-97.334-50.241
	c-24.239-12.514-53.172,5.066-53.172,32.398v238.777c0,9.02,7.321,16.34,16.34,16.34h271.796c9.02,0,16.34-7.32,16.34-16.34V146.693
	C408.238,119.303,379.255,101.81,355.067,114.296z"/>
<path style="fill:#4881C2;" d="M355.067,114.296l-97.334,50.241c-0.545,0.278-1.138,0.416-1.732,0.416v236.858h135.898
	c9.02,0,16.34-7.32,16.34-16.34V146.693C408.238,119.303,379.255,101.81,355.067,114.296z"/>
<rect x="103.762" y="262.819" style="fill:#FFC72D;" width="304.477" height="32.681"/>
<path style="fill:#4881C2;" d="M470.432,401.812H41.568C18.648,401.812,0,383.166,0,360.244v-26.466
	c0-9.024,7.316-16.34,16.34-16.34s16.34,7.316,16.34,16.34v26.466c0,4.9,3.987,8.887,8.887,8.887h428.864
	c4.9,0,8.887-3.987,8.887-8.887v-26.466c0-9.024,7.316-16.34,16.34-16.34c9.024,0,16.34,7.316,16.34,16.34v26.466
	C512,383.166,493.352,401.812,470.432,401.812z"/>
<rect x="256" y="262.819" style="fill:#FFAF00;" width="152.238" height="32.681"/>
<path style="fill:#2F66A3;" d="M495.66,317.438c-9.024,0-16.34,7.316-16.34,16.34v26.466c0,4.9-3.987,8.887-8.887,8.887H256v32.681
	h214.432c22.92,0,41.568-18.647,41.568-41.568v-26.466C512,324.754,504.684,317.438,495.66,317.438z"/>
</svg>