<?xml version="1.0" encoding="iso-8859-1"?>
<!-- Uploaded to: SVG Repo, www.svgrepo.com, Generator: SVG Repo Mixer Tools -->
<svg height="800px" width="800px" version="1.1" id="Layer_1" xmlns="http://www.w3.org/2000/svg" xmlns:xlink="http://www.w3.org/1999/xlink" 
	 viewBox="0 0 512 512" xml:space="preserve">
<g>
	<path style="fill:#285680;" d="M18.113,332.298c0,0-46.292-73.993,9.137-165.994c0,0,20.003-28.001,27.436,18.291
		c0,0,19.43,55.993,118.846-27.427c0,0,29.722-21.142,45.718-9.145c16.004,11.997,156.186,98.86,164.749,100.573
		c4.617,0.918,28.116,11.449,48.825,20.983c16.163,7.424,32.812,13.63,49.434,19.959c14.566,5.535,29.74,18.732,29.74,42.761H18.113
		z"/>
	<path style="fill:#DEDEE1;" d="M8.828,341.126v17.646c0,4.882,3.946,8.828,8.828,8.828l448.459,0.009c0,0,45.683,3.01,45.886-35.31
		H17.655C12.774,332.298,8.828,336.244,8.828,341.126"/>
	<path style="fill:#1D4563;" d="M160.449,167.66l180.639,113.426c21.751,13.656,50.467,7.089,64.124-14.663l4.581-7.3
		c-12.482-5.553-22.89-9.949-25.794-10.531c-8.563-1.704-148.745-88.567-164.749-100.573c-15.996-11.997-45.718,9.154-45.718,9.154
		C168.994,160.978,164.668,164.412,160.449,167.66"/>
	<g>
		<path style="fill:#285680;" d="M256,208.712c-2.26,0-4.52-0.865-6.241-2.586c-3.452-3.452-3.452-9.031,0-12.482l26.483-26.483
			c3.452-3.452,9.031-3.452,12.482,0s3.452,9.031,0,12.482l-26.483,26.483C260.52,207.847,258.26,208.712,256,208.712"/>
		<path style="fill:#285680;" d="M291.31,226.367c-2.26,0-4.52-0.865-6.241-2.586c-3.452-3.452-3.452-9.031,0-12.482l24.135-24.135
			c3.452-3.452,9.039-3.452,12.482,0c3.452,3.443,3.452,9.031,0,12.482l-24.135,24.135
			C295.83,225.502,293.57,226.367,291.31,226.367"/>
		<path style="fill:#285680;" d="M326.621,252.85c-2.26,0-4.52-0.865-6.241-2.586c-3.452-3.452-3.452-9.031,0-12.482l26.209-26.209
			c3.443-3.443,9.031-3.443,12.482,0c3.443,3.452,3.443,9.039,0,12.482l-26.209,26.209
			C331.141,251.985,328.881,252.85,326.621,252.85"/>
	</g>
	<g>
		<path style="fill:#1D4563;" d="M105.931,314.643c0-39-31.62-70.621-70.621-70.621c-12.826,0-24.832,3.478-35.187,9.454
			c-1.668,47.378,17.991,78.822,17.991,78.822h85.504C105.075,326.64,105.931,320.752,105.931,314.643"/>
		<path style="fill:#1D4563;" d="M229.517,270.505c0,9.746-15.81,17.655-35.31,17.655s-35.31-7.91-35.31-17.655
			c0-9.746,15.81-17.655,35.31-17.655S229.517,260.76,229.517,270.505"/>
	</g>
</g>
</svg>